<svg xmlns="http://www.w3.org/2000/svg" viewBox="0 0 80 80">
  <defs>
    <linearGradient id="a" x1="0%" x2="100%" y1="100%" y2="0%">
      <stop offset="0%" stop-color="#C8511B"/>
      <stop offset="100%" stop-color="#F58536"/>
    </linearGradient>
  </defs>
  <path fill="url(#a)" d="M0 0h80v80H0z"/>
  <path fill="#FFF" d="M56 44c4.4 0 8-3.6 8-8s-3.6-8-8-8c-1.1 0-2.1.2-3 .6C51.4 24.4 47.4 21 42.5 21c-6.1 0-11 4.9-11 11 0 .8.1 1.6.3 2.4C29.6 35.2 28 37.4 28 40c0 4.4 3.6 8 8 8h20z"/>
  <path fill="#9D5025" d="M56 40c2.2 0 4-1.8 4-4s-1.8-4-4-4c-.5 0-1 .1-1.5.3C53.7 28.2 50.7 26 47.2 26c-3 0-5.5 2.4-5.5 5.5 0 .4 0 .8.1 1.2C40.8 33.1 40 34.4 40 36c0 2.2 1.8 4 4 4h12z"/>
</svg>